<?xml version="1.0" encoding="UTF-8"?>
<svg xmlns="http://www.w3.org/2000/svg" xmlns:xlink="http://www.w3.org/1999/xlink" width="32px" height="32px" viewBox="0 0 32 32" version="1.1">
<g id="surface1">
<style>
    path {
      fill: black;
    }

    @media (prefers-color-scheme: dark) {
      path {
        fill: white;
      }
    }
</style>

<path style=" stroke:none;fill-rule:nonzero;" d="M 12.808594 3.945312 C 12.832031 3.945312 12.855469 3.945312 12.875 3.941406 C 12.898438 3.945312 12.925781 3.945312 12.949219 3.945312 C 12.972656 3.945312 13 3.945312 13.027344 3.945312 C 13.113281 3.941406 13.199219 3.945312 13.285156 3.945312 C 13.34375 3.945312 13.40625 3.945312 13.46875 3.941406 C 13.617188 3.941406 13.769531 3.941406 13.917969 3.941406 C 14.039062 3.941406 14.160156 3.945312 14.28125 3.941406 C 14.300781 3.941406 14.316406 3.941406 14.335938 3.941406 C 14.371094 3.941406 14.40625 3.941406 14.441406 3.941406 C 14.769531 3.941406 15.101562 3.941406 15.429688 3.945312 C 15.714844 3.945312 15.996094 3.945312 16.28125 3.945312 C 16.609375 3.941406 16.9375 3.941406 17.265625 3.941406 C 17.300781 3.941406 17.335938 3.941406 17.371094 3.941406 C 17.386719 3.941406 17.40625 3.941406 17.421875 3.941406 C 17.542969 3.945312 17.667969 3.941406 17.789062 3.941406 C 17.953125 3.941406 18.113281 3.941406 18.277344 3.945312 C 18.339844 3.945312 18.398438 3.945312 18.457031 3.945312 C 18.539062 3.941406 18.621094 3.945312 18.703125 3.945312 C 18.726562 3.945312 18.753906 3.945312 18.777344 3.941406 C 18.800781 3.945312 18.820312 3.945312 18.84375 3.945312 C 18.863281 3.945312 18.882812 3.945312 18.902344 3.945312 C 18.949219 3.949219 18.949219 3.949219 19.023438 4 C 19.035156 4.0625 19.035156 4.0625 19.035156 4.140625 C 19.035156 4.167969 19.035156 4.199219 19.035156 4.230469 C 19.035156 4.265625 19.035156 4.296875 19.035156 4.332031 C 19.035156 4.367188 19.035156 4.402344 19.035156 4.4375 C 19.035156 4.535156 19.035156 4.632812 19.035156 4.730469 C 19.035156 4.832031 19.035156 4.9375 19.035156 5.042969 C 19.039062 5.226562 19.039062 5.40625 19.039062 5.589844 C 19.039062 5.851562 19.039062 6.113281 19.039062 6.378906 C 19.039062 6.804688 19.039062 7.230469 19.042969 7.65625 C 19.042969 8.070312 19.042969 8.484375 19.042969 8.898438 C 19.042969 8.9375 19.042969 8.9375 19.042969 8.976562 C 19.042969 9.105469 19.042969 9.234375 19.042969 9.359375 C 19.046875 10.425781 19.046875 11.488281 19.050781 12.550781 C 19.238281 12.570312 19.425781 12.578125 19.613281 12.578125 C 19.65625 12.578125 19.65625 12.578125 19.699219 12.578125 C 19.792969 12.578125 19.882812 12.578125 19.976562 12.578125 C 20.042969 12.578125 20.109375 12.578125 20.175781 12.578125 C 20.320312 12.578125 20.464844 12.578125 20.605469 12.578125 C 20.8125 12.578125 21.023438 12.578125 21.230469 12.578125 C 21.566406 12.574219 21.902344 12.574219 22.238281 12.574219 C 22.257812 12.574219 22.277344 12.574219 22.296875 12.574219 C 22.441406 12.574219 22.582031 12.574219 22.726562 12.574219 C 22.890625 12.574219 23.054688 12.574219 23.214844 12.574219 C 23.238281 12.574219 23.257812 12.574219 23.277344 12.574219 C 23.613281 12.574219 23.949219 12.574219 24.285156 12.574219 C 24.492188 12.574219 24.699219 12.574219 24.902344 12.574219 C 25.046875 12.574219 25.1875 12.574219 25.328125 12.574219 C 25.410156 12.574219 25.492188 12.574219 25.574219 12.574219 C 25.660156 12.570312 25.75 12.570312 25.839844 12.570312 C 25.863281 12.570312 25.890625 12.570312 25.917969 12.570312 C 25.941406 12.570312 25.964844 12.570312 25.988281 12.570312 C 26.007812 12.570312 26.03125 12.570312 26.050781 12.570312 C 26.101562 12.574219 26.101562 12.574219 26.148438 12.601562 C 26.148438 17.386719 26.148438 22.171875 26.148438 27.101562 C 26.054688 27.148438 26.027344 27.15625 25.929688 27.15625 C 25.890625 27.15625 25.890625 27.15625 25.851562 27.15625 C 25.8125 27.15625 25.8125 27.15625 25.773438 27.15625 C 25.742188 27.15625 25.714844 27.15625 25.683594 27.15625 C 25.605469 27.15625 25.523438 27.15625 25.445312 27.15625 C 25.359375 27.15625 25.273438 27.15625 25.1875 27.15625 C 25.019531 27.15625 24.851562 27.15625 24.679688 27.15625 C 24.542969 27.15625 24.40625 27.15625 24.269531 27.15625 C 24.25 27.15625 24.230469 27.15625 24.210938 27.15625 C 24.171875 27.15625 24.132812 27.15625 24.09375 27.15625 C 23.722656 27.15625 23.351562 27.15625 22.980469 27.15625 C 22.660156 27.15625 22.34375 27.15625 22.023438 27.15625 C 21.65625 27.15625 21.285156 27.15625 20.914062 27.15625 C 20.875 27.15625 20.835938 27.15625 20.796875 27.15625 C 20.769531 27.15625 20.769531 27.15625 20.738281 27.15625 C 20.601562 27.15625 20.464844 27.15625 20.328125 27.15625 C 20.160156 27.15625 19.996094 27.15625 19.828125 27.15625 C 19.742188 27.15625 19.660156 27.15625 19.574219 27.15625 C 19.480469 27.15625 19.390625 27.15625 19.296875 27.15625 C 19.269531 27.15625 19.242188 27.15625 19.214844 27.15625 C 19.191406 27.15625 19.164062 27.15625 19.140625 27.15625 C 19.121094 27.15625 19.097656 27.15625 19.074219 27.15625 C 19.023438 27.148438 19.023438 27.148438 18.976562 27.101562 C 18.96875 27.050781 18.96875 27.050781 18.96875 26.988281 C 18.96875 26.964844 18.96875 26.941406 18.96875 26.914062 C 18.96875 26.886719 18.96875 26.863281 18.96875 26.835938 C 18.96875 26.792969 18.96875 26.792969 18.96875 26.75 C 18.96875 26.65625 18.96875 26.5625 18.96875 26.46875 C 18.96875 26.402344 18.96875 26.332031 18.96875 26.265625 C 18.96875 26.121094 18.96875 25.976562 18.96875 25.832031 C 18.96875 25.621094 18.96875 25.410156 18.96875 25.203125 C 18.96875 24.859375 18.972656 24.519531 18.972656 24.179688 C 18.972656 23.847656 18.972656 23.519531 18.972656 23.1875 C 18.972656 23.167969 18.972656 23.148438 18.972656 23.125 C 18.972656 22.964844 18.972656 22.804688 18.972656 22.644531 C 18.972656 21.855469 18.972656 21.0625 18.976562 20.273438 C 16.886719 20.273438 14.800781 20.273438 12.648438 20.273438 C 12.648438 22.527344 12.648438 24.78125 12.648438 27.101562 C 12.480469 27.15625 12.480469 27.15625 12.371094 27.15625 C 12.347656 27.15625 12.324219 27.15625 12.296875 27.15625 C 12.269531 27.15625 12.242188 27.15625 12.214844 27.15625 C 12.1875 27.15625 12.160156 27.15625 12.128906 27.15625 C 12.050781 27.15625 11.96875 27.15625 11.890625 27.15625 C 11.804688 27.15625 11.71875 27.15625 11.632812 27.15625 C 11.464844 27.15625 11.296875 27.15625 11.128906 27.15625 C 10.933594 27.15625 10.738281 27.15625 10.542969 27.15625 C 10.195312 27.15625 9.847656 27.15625 9.5 27.15625 C 9.160156 27.15625 8.824219 27.15625 8.484375 27.15625 C 8.453125 27.15625 8.453125 27.15625 8.421875 27.15625 C 8.390625 27.15625 8.390625 27.15625 8.359375 27.15625 C 7.972656 27.15625 7.589844 27.15625 7.203125 27.152344 C 7.066406 27.152344 6.929688 27.152344 6.792969 27.152344 C 6.628906 27.152344 6.460938 27.152344 6.296875 27.152344 C 6.210938 27.152344 6.128906 27.152344 6.042969 27.152344 C 5.949219 27.152344 5.859375 27.152344 5.769531 27.152344 C 5.742188 27.152344 5.714844 27.152344 5.6875 27.152344 C 5.660156 27.152344 5.636719 27.152344 5.613281 27.152344 C 5.589844 27.152344 5.570312 27.152344 5.546875 27.152344 C 5.5 27.148438 5.5 27.148438 5.476562 27.125 C 5.472656 27.046875 5.472656 26.972656 5.472656 26.894531 C 5.472656 26.871094 5.472656 26.847656 5.472656 26.820312 C 5.472656 26.738281 5.472656 26.65625 5.472656 26.570312 C 5.472656 26.511719 5.472656 26.453125 5.472656 26.390625 C 5.472656 26.261719 5.472656 26.132812 5.472656 26 C 5.472656 25.804688 5.472656 25.613281 5.472656 25.417969 C 5.472656 25.050781 5.472656 24.683594 5.472656 24.316406 C 5.472656 24.035156 5.472656 23.75 5.46875 23.46875 C 5.46875 23.386719 5.46875 23.304688 5.46875 23.222656 C 5.46875 23.203125 5.46875 23.183594 5.46875 23.164062 C 5.46875 22.59375 5.46875 22.023438 5.46875 21.453125 C 5.46875 21.433594 5.46875 21.410156 5.46875 21.390625 C 5.46875 21.28125 5.46875 21.171875 5.46875 21.0625 C 5.46875 21.039062 5.46875 21.019531 5.46875 20.996094 C 5.46875 20.953125 5.46875 20.910156 5.46875 20.863281 C 5.46875 20.183594 5.46875 19.503906 5.46875 18.824219 C 5.46875 18.058594 5.46875 17.292969 5.46875 16.53125 C 5.46875 16.449219 5.46875 16.367188 5.46875 16.285156 C 5.46875 16.265625 5.46875 16.246094 5.46875 16.226562 C 5.46875 15.902344 5.46875 15.578125 5.46875 15.253906 C 5.46875 14.929688 5.46875 14.605469 5.46875 14.28125 C 5.46875 14.085938 5.46875 13.894531 5.46875 13.703125 C 5.46875 13.558594 5.46875 13.414062 5.46875 13.269531 C 5.46875 13.210938 5.46875 13.152344 5.46875 13.09375 C 5.46875 13.015625 5.46875 12.9375 5.46875 12.859375 C 5.46875 12.835938 5.46875 12.8125 5.46875 12.789062 C 5.46875 12.628906 5.46875 12.628906 5.523438 12.574219 C 5.578125 12.570312 5.578125 12.570312 5.640625 12.570312 C 5.667969 12.570312 5.691406 12.570312 5.714844 12.570312 C 5.757812 12.570312 5.757812 12.570312 5.800781 12.570312 C 5.84375 12.570312 5.84375 12.570312 5.886719 12.570312 C 5.96875 12.570312 6.046875 12.570312 6.128906 12.570312 C 6.214844 12.570312 6.304688 12.570312 6.394531 12.570312 C 6.5625 12.570312 6.734375 12.570312 6.90625 12.570312 C 7.101562 12.570312 7.300781 12.570312 7.5 12.570312 C 8.019531 12.570312 8.542969 12.570312 9.066406 12.570312 C 10.230469 12.574219 11.398438 12.574219 12.601562 12.574219 C 12.601562 9.746094 12.601562 6.914062 12.601562 4 C 12.691406 3.953125 12.714844 3.945312 12.808594 3.945312 Z M 12.808594 3.945312 "/>
</g>
</svg>
